<?xml version="1.0" encoding="UTF-8"?>
<svg width="13px" height="20px" viewBox="0 0 13 20" version="1.1" xmlns="http://www.w3.org/2000/svg" xmlns:xlink="http://www.w3.org/1999/xlink">
    <!-- Generator: Sketch 52.6 (67491) - http://www.bohemiancoding.com/sketch -->
    <title>fing_outage</title>
    <desc>Created with Sketch.</desc>
    <g id="Page-1" stroke="none" stroke-width="1" fill="none" fill-rule="evenodd">
        <g id="Desktop-HD" transform="translate(-1336.000000, -775.000000)">
            <g id="fing_outage" transform="translate(1336.000000, 775.000000)">
                <rect id="Rectangle" x="0" y="0" width="24" height="20"></rect>
                <path d="M5.8,15.8 L5.9,10.5 C5.9,10.3 5.8,10.1 5.6,9.9 C5.5,9.9 5.3,9.8 5.2,9.8 C5.1,9.8 5,9.8 5,9.8 L2.5,10.8 L5,2.1 L8.7,2.1 L6.5,7.7 C6.4,8 6.4,8.2 6.6,8.4 C6.8,8.6 7,8.7 7.2,8.7 L10.1,8.1 L5.8,15.8 Z" id="Path"></path>
                <g id="Group" fill="#009AEE" fill-rule="nonzero">
                    <path d="M12,6.7 C11.9,6.5 11.6,6.4 11.3,6.4 L8.2,7.1 L10.4,1.6 C10.5,1.4 10.4,1.2 10.3,1 C10.2,0.8 10,0.7 9.7,0.7 L4.5,0.7 C4.2,0.7 3.9,0.9 3.9,1.2 L0.9,11.7 C0.8,11.9 0.9,12.2 1.1,12.4 C1.3,12.6 1.6,12.6 1.8,12.5 L4.6,11.5 L4.5,18.4 C4.5,18.7 4.7,19 5,19.1 C5.1,19.1 5.1,19.1 5.2,19.1 C5.4,19.1 5.7,19 5.8,18.8 L12.2,7.5 C12.2,7.2 12.2,6.9 12,6.7 Z M5.6,10 C5.5,9.9 5.3,9.8 5.2,9.8 C5.1,9.8 5,9.8 5,9.8 L2.5,10.8 L5,2.1 L8.7,2.1 L6.5,7.7 C6.4,8 6.4,8.2 6.6,8.4 C6.8,8.6 7,8.7 7.2,8.7 L10.1,8.1 L5.7,15.8 L5.8,10.5 C5.9,10.3 5.8,10.1 5.6,10 Z" id="Shape"></path>
                </g>
            </g>
        </g>
    </g>
</svg>