<?xml version="1.0" encoding="UTF-8"?>
<svg width="1017px" height="816px" viewBox="0 0 1017 816" version="1.1" xmlns="http://www.w3.org/2000/svg" xmlns:xlink="http://www.w3.org/1999/xlink">
     <!-- Generator: Sketch 52.2 (67145) - http://www.bohemiancoding.com/sketch -->
     <title>noun_wifi_1029903_000000</title>
     <desc>Created with Sketch.</desc>
     <g id="Page-1" stroke="none" stroke-width="1" fill="none" fill-rule="evenodd" opacity="0.06">
          <g id="Artboard" transform="translate(0.000000, -282.000000)" fill="#969696" fill-rule="nonzero">
               <g id="noun_wifi_1029903_000000" transform="translate(0.000000, 282.295738)">
                    <ellipse id="Oval" cx="509.955352" cy="698.571429" rx="116.428163" ry="116.428571"></ellipse>
                    <path d="M1007.68575,282.339286 C987.310819,250.321429 966.93589,221.214286 943.650258,195.017857 C943.650258,195.017857 943.650258,195.017857 943.650258,195.017857 C833.043503,72.7678571 675.865484,0 509.955352,0 C344.04522,0 186.867201,69.8571429 76.2604465,192.107143 C52.974814,218.303571 29.6891815,250.321429 9.31425301,282.339286 C-8.14997138,308.535714 0.582140813,346.375 29.6891815,360.928571 C38.4212936,366.75 50.0641099,369.660714 58.7962221,369.660714 C79.1711505,369.660714 96.6353749,360.928571 108.278191,340.553571 C122.831712,314.357143 140.295936,291.071429 160.670864,270.696429 C247.991986,171.732143 376.062965,116.428571 507.044648,116.428571 C638.026331,116.428571 766.09731,171.732143 853.418432,270.696429 C853.418432,270.696429 853.418432,270.696429 853.418432,270.696429 C873.79336,293.982143 891.257584,317.267857 905.811105,340.553571 C917.453921,358.017857 934.918145,369.660714 955.293074,369.660714 C966.93589,369.660714 975.668002,366.75 984.400114,360.928571 C1016.41786,346.375 1025.14997,308.535714 1007.68575,282.339286 Z" id="Shape"></path>
                    <path d="M509.955352,291.071429 C387.705781,291.071429 274.188323,355.107143 210.152833,459.892857 C192.688609,486.089286 201.420721,523.928571 230.527762,538.482143 C256.724098,555.946429 294.563251,547.214286 309.116772,518.107143 C352.777333,448.25 425.544934,404.589286 507.044648,404.589286 C588.544362,404.589286 664.222667,448.25 704.972524,518.107143 C716.615341,535.571429 734.079565,547.214286 754.454493,547.214286 C766.09731,547.214286 774.829422,544.303571 783.561534,538.482143 C809.757871,521.017857 821.400687,486.089286 803.936463,459.892857 C745.722381,355.107143 632.204923,291.071429 509.955352,291.071429 Z" id="Shape"></path>
               </g>
          </g>
     </g>
</svg>